<?xml version="1.0" encoding="utf-8"?>
<!-- Generated by IcoMoon.io -->
<!DOCTYPE svg PUBLIC "-//W3C//DTD SVG 1.1//EN" "http://www.w3.org/Graphics/SVG/1.1/DTD/svg11.dtd">
<svg version="1.1" xmlns="http://www.w3.org/2000/svg" xmlns:xlink="http://www.w3.org/1999/xlink" width="22" height="22" viewBox="0 0 22 22">
<path d="M20 22h-18c-1.104 0-2-0.896-2-2v-18c0-1.104 0.896-2 2-2h18c1.104 0 2 0.896 2 2v18c0 1.104-0.896 2-2 2zM20 2h-18v18h18v-18zM10 15l3-4 5 7h-14l4-5 2 2zM8 9c-1.104 0-2-0.896-2-2s0.896-2 2-2 2 0.896 2 2-0.896 2-2 2z" fill="#000000"></path>
</svg>
