<svg height="595.28pt" xmlns:xlink="http://www.w3.org/1999/xlink" xmlns="http://www.w3.org/2000/svg" width="841.89pt" version="1.1" viewBox="0,0,841.89,595.28">
  <path d="M599.02+73.3475C313.954+80.6109+502.261+203.578+360.304+351.63C312.116+401.888+277.603+379.911+272.586+364.985C257.193+319.184+276.448+300.411+279.208+292.422C281.01+287.203+296.826+280.451+309.483+258.726C320.93+239.079+310.859+218.183+314.474+214.568C324.842+204.2+356.172+219.582+368.812+206.941C382.228+193.527+345.444+173.338+339.841+170.537C316.844+159.038+381.318+163.116+381.318+149.101C381.318+122.827+321.592+116.98+321.592+116.98C321.593+116.98+372.822+90.4582+359.238+82.0765C304.133+48.0758+183.636+118.267+183.411+173.323C183.351+188.014+113.763+182.867+112.133+196.801C112.018+197.781+181.008+233.984+179.048+235.99C177.68+237.39+109.411+237.24+109.645+242.828C111.492+287.001+180.098+266.42+179.286+278.811C179.142+281.007+168.385+279.029+160.315+289.505C155.322+295.988+147.753+311.549+166.556+323.516C174.801+328.764+170.463+359.123+169.856+378.998C168.916+409.79+176.357+551.059+403.61+523.42C549.335+505.697+556.398+337.748+559.826+314.555C562.966+293.314+597.534+345.889+650.319+337.232C770.286+317.559+557.709+260.269+568.428+249.376C584.972+232.564+785.491+308.621+740.26+227.206C714.684+181.169+572.886+174.694+572.563+161.674C571.998+138.975+798.187+209.679+779.335+150.277C762.51+97.259+659.484+71.8069+599.02+73.3475Z" stroke="#000000" stroke-width="0.109287" stroke-linecap="round" fill="#000000" opacity="1"/>
</svg>
