<?xml version="1.0" encoding="utf-8"?>
<!-- Generated by IcoMoon.io -->
<!DOCTYPE svg PUBLIC "-//W3C//DTD SVG 1.1//EN" "http://www.w3.org/Graphics/SVG/1.1/DTD/svg11.dtd">
<svg version="1.1" xmlns="http://www.w3.org/2000/svg" xmlns:xlink="http://www.w3.org/1999/xlink" width="22" height="22" viewBox="0 0 22 22">
<path d="M21 10.5l-7-3 2.798-1.999c-1.458-1.536-3.513-2.501-5.798-2.501-3.875 0-7.104 2.755-7.841 6.412l-1.867-0.773c1.062-4.381 5-7.639 9.708-7.639 2.957 0 5.604 1.292 7.436 3.332l2.564-1.832v8zM5.202 16.499c1.457 1.536 3.513 2.501 5.798 2.501 3.89 0 7.128-2.776 7.848-6.455l1.865 0.798c-1.056 4.39-4.998 7.657-9.713 7.657-2.957 0-5.605-1.292-7.436-3.332l-2.564 1.832v-8l7 3-2.798 1.999z" fill="#000000"></path>
</svg>
