<?xml version="1.0" standalone="no"?>
<!DOCTYPE svg PUBLIC "-//W3C//DTD SVG 20010904//EN"
 "http://www.w3.org/TR/2001/REC-SVG-20010904/DTD/svg10.dtd">
<svg version="1.0" xmlns="http://www.w3.org/2000/svg"
 width="700.000000pt" height="700.000000pt" viewBox="0 0 700.000000 700.000000"
 preserveAspectRatio="xMidYMid meet">
<metadata>
Created by potrace 1.11, written by Peter Selinger 2001-2013
</metadata>
<g transform="translate(0.000000,700.000000) scale(0.100000,-0.100000)"
fill="#000000" stroke="none">
<path d="M3407 6504 c-1 -2 -32 -6 -67 -10 -126 -13 -313 -69 -460 -138 -408
-191 -784 -583 -1028 -1071 -57 -114 -82 -169 -107 -240 -10 -27 -23 -56 -28
-62 -19 -25 9 -12 38 18 38 39 122 96 180 122 109 49 232 58 305 21 54 -27
160 -141 211 -226 l45 -76 50 52 c87 93 168 145 282 182 75 25 187 33 247 18
88 -21 186 -102 262 -219 l47 -70 0 -1022 1 -1023 -45 -1 c-260 -3 -880 -2
-884 2 -7 7 -15 387 -21 967 -3 378 -6 447 -19 467 -38 58 -237 142 -381 161
-248 32 -441 16 -621 -51 -262 -98 -433 -305 -492 -596 -23 -112 -29 -413 -9
-426 7 -4 134 -8 284 -8 150 -1 274 -3 277 -5 2 -3 7 -50 10 -105 7 -103 14
-172 21 -215 3 -14 7 -47 11 -75 7 -67 23 -164 39 -250 43 -231 123 -507 191
-662 8 -17 14 -34 14 -37 0 -18 156 -316 204 -390 388 -595 994 -872 1776
-813 327 26 640 129 885 292 168 112 316 259 463 460 96 131 228 410 306 645
32 98 98 351 111 430 3 19 12 71 20 115 8 44 17 100 20 125 3 25 8 56 10 70 8
47 15 118 20 192 5 71 11 118 17 123 2 2 53 26 113 55 144 68 301 146 345 172
59 36 120 89 120 104 0 19 -147 89 -350 168 -80 31 -153 61 -162 66 -10 6 -24
10 -32 10 -23 0 -26 12 -31 122 -3 57 -7 126 -10 153 -12 144 -17 191 -21 197
-3 4 -7 20 -9 35 -2 16 -13 55 -26 88 -80 215 -237 306 -529 307 -174 1 -289
-25 -385 -87 -88 -57 -129 -108 -161 -196 -33 -93 -32 -72 -35 -882 -2 -487
-6 -710 -13 -713 -6 -2 -201 -5 -433 -8 l-423 -5 0 1023 0 1023 42 49 c130
151 248 234 331 234 75 0 201 -45 327 -117 63 -36 179 -113 185 -123 10 -17
23 -11 31 13 53 175 228 292 428 286 125 -4 329 -68 420 -132 l28 -20 -7 24
c-37 125 -220 467 -342 639 -112 158 -296 356 -432 464 -238 190 -541 331
-776 362 -27 3 -54 9 -59 12 -10 5 -313 11 -319 6z m1757 -2425 c42 -19 54
-88 22 -128 -17 -21 -49 -29 -79 -19 -55 20 -68 96 -23 135 31 26 44 28 80 12z"/>
</g>
</svg>
