<svg version="1" xmlns="http://www.w3.org/2000/svg" width="933.333" height="933.333" viewBox="0 0 700.000000 700.000000"><path d="M340.7 49.6c-.1.2-3.2.6-6.7 1-12.6 1.3-31.3 6.9-46 13.8-40.8 19.1-78.4 58.3-102.8 107.1-5.7 11.4-8.2 16.9-10.7 24-1 2.7-2.3 5.6-2.8 6.2-1.9 2.5.9 1.2 3.8-1.8 3.8-3.9 12.2-9.6 18-12.2 10.9-4.9 23.2-5.8 30.5-2.1 5.4 2.7 16 14.1 21.1 22.6l4.5 7.6 5-5.2c8.7-9.3 16.8-14.5 28.2-18.2 7.5-2.5 18.7-3.3 24.7-1.8 8.8 2.1 18.6 10.2 26.2 21.9l4.7 7v102.2l.1 102.3-4.5.1c-26 .3-88 .2-88.4-.2-.7-.7-1.5-38.7-2.1-96.7-.3-37.8-.6-44.7-1.9-46.7-3.8-5.8-23.7-14.2-38.1-16.1-24.8-3.2-44.1-1.6-62.1 5.1-26.2 9.8-43.3 30.5-49.2 59.6-2.3 11.2-2.9 41.3-.9 42.6.7.4 13.4.8 28.4.8 15 .1 27.4.3 27.7.5.2.3.7 5 1 10.5.7 10.3 1.4 17.2 2.1 21.5.3 1.4.7 4.7 1.1 7.5.7 6.7 2.3 16.4 3.9 25 4.3 23.1 12.3 50.7 19.1 66.2.8 1.7 1.4 3.4 1.4 3.7 0 1.8 15.6 31.6 20.4 39 38.8 59.5 99.4 87.2 177.6 81.3 32.7-2.6 64-12.9 88.5-29.2 16.8-11.2 31.6-25.9 46.3-46 9.6-13.1 22.8-41 30.6-64.5 3.2-9.8 9.8-35.1 11.1-43 .3-1.9 1.2-7.1 2-11.5s1.7-10 2-12.5c.3-2.5.8-5.6 1-7 .8-4.7 1.5-11.8 2-19.2.5-7.1 1.1-11.8 1.7-12.3.2-.2 5.3-2.6 11.3-5.5 14.4-6.8 30.1-14.6 34.5-17.2 5.9-3.6 12-8.9 12-10.4 0-1.9-14.7-8.9-35-16.8-8-3.1-15.3-6.1-16.2-6.6-1-.6-2.4-1-3.2-1-2.3 0-2.6-1.2-3.1-12.2-.3-5.7-.7-12.6-1-15.3-1.2-14.4-1.7-19.1-2.1-19.7-.3-.4-.7-2-.9-3.5-.2-1.6-1.3-5.5-2.6-8.8-8-21.5-23.7-30.6-52.9-30.7-17.4-.1-28.9 2.5-38.5 8.7-8.8 5.7-12.9 10.8-16.1 19.6-3.3 9.3-3.2 7.2-3.5 88.2-.2 48.7-.6 71-1.3 71.3-.6.2-20.1.5-43.3.8l-42.3.5V219.3l4.2-4.9c13-15.1 24.8-23.4 33.1-23.4 7.5 0 20.1 4.5 32.7 11.7 6.3 3.6 17.9 11.3 18.5 12.3 1 1.7 2.3 1.1 3.1-1.3 5.3-17.5 22.8-29.2 42.8-28.6 12.5.4 32.9 6.8 42 13.2l2.8 2-.7-2.4c-3.7-12.5-22-46.7-34.2-63.9-11.2-15.8-29.6-35.6-43.2-46.4-23.8-19-54.1-33.1-77.6-36.2-2.7-.3-5.4-.9-5.9-1.2-1-.5-31.3-1.1-31.9-.6zm175.7 242.5c4.2 1.9 5.4 8.8 2.2 12.8-1.7 2.1-4.9 2.9-7.9 1.9-5.5-2-6.8-9.6-2.3-13.5 3.1-2.6 4.4-2.8 8-1.2z"/></svg>